<svg width="284" height="61" viewBox="0 0 284 61" fill="none" xmlns="http://www.w3.org/2000/svg">
<g filter="url(#filter0_i_123_105)">
<rect width="284" height="61" rx="30.5" fill="url(#paint0_radial_123_105)"/>
<path d="M25.5594 23.8H33.6874V35H32.1994V25.208H27.0474V35H25.5594V23.8ZM43.3386 33.992C42.528 34.8027 41.5306 35.208 40.3466 35.208C39.1626 35.208 38.1653 34.8027 37.3546 33.992C36.544 33.1813 36.1386 32.184 36.1386 31C36.1386 29.816 36.544 28.8187 37.3546 28.008C38.1653 27.1973 39.1626 26.792 40.3466 26.792C41.5306 26.792 42.528 27.1973 43.3386 28.008C44.16 28.8293 44.5706 29.8267 44.5706 31C44.5706 32.1733 44.16 33.1707 43.3386 33.992ZM40.3466 33.848C41.1466 33.848 41.8186 33.576 42.3626 33.032C42.9066 32.488 43.1786 31.8107 43.1786 31C43.1786 30.1893 42.9066 29.512 42.3626 28.968C41.8186 28.424 41.1466 28.152 40.3466 28.152C39.5573 28.152 38.8906 28.424 38.3466 28.968C37.8026 29.512 37.5306 30.1893 37.5306 31C37.5306 31.8107 37.8026 32.488 38.3466 33.032C38.8906 33.576 39.5573 33.848 40.3466 33.848ZM50.6116 35.208C49.4063 35.208 48.4036 34.808 47.6036 34.008C46.8036 33.1973 46.4036 32.1947 46.4036 31C46.4036 29.8053 46.8036 28.808 47.6036 28.008C48.4036 27.1973 49.4063 26.792 50.6116 26.792C51.401 26.792 52.1103 26.984 52.7396 27.368C53.369 27.7413 53.8383 28.248 54.1476 28.888L52.9796 29.56C52.777 29.1333 52.4623 28.792 52.0356 28.536C51.6196 28.28 51.145 28.152 50.6116 28.152C49.8116 28.152 49.1396 28.424 48.5956 28.968C48.0623 29.5227 47.7956 30.2 47.7956 31C47.7956 31.7893 48.0623 32.4613 48.5956 33.016C49.1396 33.56 49.8116 33.832 50.6116 33.832C51.145 33.832 51.625 33.7093 52.0516 33.464C52.4783 33.208 52.8036 32.8667 53.0276 32.44L54.2116 33.128C53.8596 33.768 53.3636 34.2747 52.7236 34.648C52.0836 35.0213 51.3796 35.208 50.6116 35.208ZM62.7536 27H64.2416V35H62.8816V29.192L60.3376 33.288H60.1616L57.6176 29.192V35H56.2416V27H57.7296L60.2416 31.048L62.7536 27ZM73.7586 33.992C72.948 34.8027 71.9506 35.208 70.7666 35.208C69.5826 35.208 68.5853 34.8027 67.7746 33.992C66.964 33.1813 66.5586 32.184 66.5586 31C66.5586 29.816 66.964 28.8187 67.7746 28.008C68.5853 27.1973 69.5826 26.792 70.7666 26.792C71.9506 26.792 72.948 27.1973 73.7586 28.008C74.58 28.8293 74.9906 29.8267 74.9906 31C74.9906 32.1733 74.58 33.1707 73.7586 33.992ZM70.7666 33.848C71.5666 33.848 72.2386 33.576 72.7826 33.032C73.3266 32.488 73.5986 31.8107 73.5986 31C73.5986 30.1893 73.3266 29.512 72.7826 28.968C72.2386 28.424 71.5666 28.152 70.7666 28.152C69.9773 28.152 69.3106 28.424 68.7666 28.968C68.2226 29.512 67.9506 30.1893 67.9506 31C67.9506 31.8107 68.2226 32.488 68.7666 33.032C69.3106 33.576 69.9773 33.848 70.7666 33.848ZM76.0631 27H82.9111V28.344H80.1911V35H78.7991V28.344H76.0631V27ZM89.187 26.792C90.307 26.792 91.2617 27.2027 92.051 28.024C92.8403 28.8453 93.235 29.8373 93.235 31C93.235 32.1733 92.8403 33.1707 92.051 33.992C91.2723 34.8027 90.3177 35.208 89.187 35.208C87.8643 35.208 86.8563 34.68 86.163 33.624V38.2H84.771V27H86.163V28.376C86.8563 27.32 87.8643 26.792 89.187 26.792ZM89.011 33.864C89.811 33.864 90.483 33.592 91.027 33.048C91.571 32.4827 91.843 31.8 91.843 31C91.843 30.1893 91.571 29.512 91.027 28.968C90.483 28.4133 89.811 28.136 89.011 28.136C88.2003 28.136 87.523 28.4133 86.979 28.968C86.435 29.512 86.163 30.1893 86.163 31C86.163 31.8 86.435 32.4827 86.979 33.048C87.523 33.592 88.2003 33.864 89.011 33.864ZM103.216 31.64H96.512C96.6507 32.344 96.976 32.8987 97.488 33.304C98 33.6987 98.64 33.896 99.408 33.896C100.464 33.896 101.232 33.5067 101.712 32.728L102.896 33.4C102.107 34.6053 100.933 35.208 99.376 35.208C98.1173 35.208 97.0827 34.8133 96.272 34.024C95.4827 33.2133 95.088 32.2053 95.088 31C95.088 29.784 95.4773 28.7813 96.256 27.992C97.0347 27.192 98.0427 26.792 99.28 26.792C100.453 26.792 101.408 27.208 102.144 28.04C102.891 28.8507 103.264 29.8427 103.264 31.016C103.264 31.2187 103.248 31.4267 103.216 31.64ZM99.28 28.104C98.544 28.104 97.9253 28.312 97.424 28.728C96.9333 29.144 96.6293 29.7093 96.512 30.424H101.856C101.739 29.688 101.445 29.1173 100.976 28.712C100.507 28.3067 99.9413 28.104 99.28 28.104ZM104.296 27H111.144V28.344H108.424V35H107.032V28.344H104.296V27ZM114.396 29.88H116.38C117.18 29.88 117.841 30.12 118.364 30.6C118.897 31.0693 119.164 31.6827 119.164 32.44C119.164 33.1973 118.897 33.816 118.364 34.296C117.83 34.7653 117.169 35 116.38 35H113.004V27H114.396V29.88ZM114.396 33.704H116.38C116.785 33.704 117.121 33.5867 117.388 33.352C117.654 33.1173 117.788 32.8133 117.788 32.44C117.788 32.0667 117.649 31.7627 117.372 31.528C117.105 31.2827 116.774 31.16 116.38 31.16H114.396V33.704ZM128.756 30.872L132.708 35H130.98L127.332 31.208V35H125.94V27H127.332V30.536L130.788 27H132.58L128.756 30.872ZM140.532 28.376V27H141.924V35H140.532V33.624C139.849 34.68 138.841 35.208 137.508 35.208C136.377 35.208 135.423 34.8027 134.644 33.992C133.855 33.1707 133.46 32.1733 133.46 31C133.46 29.8373 133.855 28.8453 134.644 28.024C135.433 27.2027 136.388 26.792 137.508 26.792C138.841 26.792 139.849 27.32 140.532 28.376ZM137.684 33.864C138.495 33.864 139.172 33.592 139.716 33.048C140.26 32.4827 140.532 31.8 140.532 31C140.532 30.1893 140.26 29.512 139.716 28.968C139.172 28.4133 138.495 28.136 137.684 28.136C136.884 28.136 136.212 28.4133 135.668 28.968C135.124 29.512 134.852 30.1893 134.852 31C134.852 31.8 135.124 32.4827 135.668 33.048C136.212 33.592 136.884 33.864 137.684 33.864ZM143.777 27H150.625V28.344H147.905V35H146.513V28.344H143.777V27ZM158.796 28.376V27H160.188V35H158.796V33.624C158.114 34.68 157.106 35.208 155.772 35.208C154.642 35.208 153.687 34.8027 152.908 33.992C152.119 33.1707 151.724 32.1733 151.724 31C151.724 29.8373 152.119 28.8453 152.908 28.024C153.698 27.2027 154.652 26.792 155.772 26.792C157.106 26.792 158.114 27.32 158.796 28.376ZM155.948 33.864C156.759 33.864 157.436 33.592 157.98 33.048C158.524 32.4827 158.796 31.8 158.796 31C158.796 30.1893 158.524 29.512 157.98 28.968C157.436 28.4133 156.759 28.136 155.948 28.136C155.148 28.136 154.476 28.4133 153.932 28.968C153.388 29.512 153.116 30.1893 153.116 31C153.116 31.8 153.388 32.4827 153.932 33.048C154.476 33.592 155.148 33.864 155.948 33.864ZM163.673 27H169.609V35H168.217V28.344H165.065V31.608C165.065 32.888 164.809 33.8 164.297 34.344C163.785 34.8773 163.033 35.096 162.041 35V33.688C162.596 33.7627 163.007 33.64 163.273 33.32C163.54 32.9893 163.673 32.408 163.673 31.576V27ZM179.111 33.992C178.3 34.8027 177.303 35.208 176.119 35.208C174.935 35.208 173.937 34.8027 173.127 33.992C172.316 33.1813 171.911 32.184 171.911 31C171.911 29.816 172.316 28.8187 173.127 28.008C173.937 27.1973 174.935 26.792 176.119 26.792C177.303 26.792 178.3 27.1973 179.111 28.008C179.932 28.8293 180.343 29.8267 180.343 31C180.343 32.1733 179.932 33.1707 179.111 33.992ZM176.119 33.848C176.919 33.848 177.591 33.576 178.135 33.032C178.679 32.488 178.951 31.8107 178.951 31C178.951 30.1893 178.679 29.512 178.135 28.968C177.591 28.424 176.919 28.152 176.119 28.152C175.329 28.152 174.663 28.424 174.119 28.968C173.575 29.512 173.303 30.1893 173.303 31C173.303 31.8107 173.575 32.488 174.119 33.032C174.663 33.576 175.329 33.848 176.119 33.848ZM182.624 27H187.872V28.344H184.016V35H182.624V27ZM193.476 27H200.324V28.344H197.604V35H196.212V28.344H193.476V27ZM208.624 33.992C207.813 34.8027 206.816 35.208 205.632 35.208C204.448 35.208 203.45 34.8027 202.64 33.992C201.829 33.1813 201.424 32.184 201.424 31C201.424 29.816 201.829 28.8187 202.64 28.008C203.45 27.1973 204.448 26.792 205.632 26.792C206.816 26.792 207.813 27.1973 208.624 28.008C209.445 28.8293 209.856 29.8267 209.856 31C209.856 32.1733 209.445 33.1707 208.624 33.992ZM205.632 33.848C206.432 33.848 207.104 33.576 207.648 33.032C208.192 32.488 208.464 31.8107 208.464 31C208.464 30.1893 208.192 29.512 207.648 28.968C207.104 28.424 206.432 28.152 205.632 28.152C204.842 28.152 204.176 28.424 203.632 28.968C203.088 29.512 202.816 30.1893 202.816 31C202.816 31.8107 203.088 32.488 203.632 33.032C204.176 33.576 204.842 33.848 205.632 33.848ZM217.465 30.888C218.286 31.2293 218.697 31.848 218.697 32.744C218.697 33.4267 218.473 33.976 218.025 34.392C217.577 34.7973 216.947 35 216.137 35H212.137V27H215.817C216.606 27 217.219 27.1973 217.657 27.592C218.105 27.9867 218.329 28.5147 218.329 29.176C218.329 29.944 218.041 30.5147 217.465 30.888ZM215.753 28.248H213.497V30.344H215.753C216.563 30.344 216.969 29.9867 216.969 29.272C216.969 28.5893 216.563 28.248 215.753 28.248ZM213.497 33.736H216.057C216.462 33.736 216.771 33.64 216.985 33.448C217.209 33.256 217.321 32.984 217.321 32.632C217.321 32.3013 217.209 32.0453 216.985 31.864C216.771 31.672 216.462 31.576 216.057 31.576H213.497V33.736ZM227.463 28.376V27H228.855V35H227.463V33.624C226.78 34.68 225.772 35.208 224.439 35.208C223.308 35.208 222.354 34.8027 221.575 33.992C220.786 33.1707 220.391 32.1733 220.391 31C220.391 29.8373 220.786 28.8453 221.575 28.024C222.364 27.2027 223.319 26.792 224.439 26.792C225.772 26.792 226.78 27.32 227.463 28.376ZM224.615 33.864C225.426 33.864 226.103 33.592 226.647 33.048C227.191 32.4827 227.463 31.8 227.463 31C227.463 30.1893 227.191 29.512 226.647 28.968C226.103 28.4133 225.426 28.136 224.615 28.136C223.815 28.136 223.143 28.4133 222.599 28.968C222.055 29.512 221.783 30.1893 221.783 31C221.783 31.8 222.055 32.4827 222.599 33.048C223.143 33.592 223.815 33.864 224.615 33.864ZM236.02 26.792C237.14 26.792 238.095 27.2027 238.884 28.024C239.673 28.8453 240.068 29.8373 240.068 31C240.068 32.1733 239.673 33.1707 238.884 33.992C238.105 34.8027 237.151 35.208 236.02 35.208C234.697 35.208 233.689 34.68 232.996 33.624V38.2H231.604V27H232.996V28.376C233.689 27.32 234.697 26.792 236.02 26.792ZM235.844 33.864C236.644 33.864 237.316 33.592 237.86 33.048C238.404 32.4827 238.676 31.8 238.676 31C238.676 30.1893 238.404 29.512 237.86 28.968C237.316 28.4133 236.644 28.136 235.844 28.136C235.033 28.136 234.356 28.4133 233.812 28.968C233.268 29.512 232.996 30.1893 232.996 31C232.996 31.8 233.268 32.4827 233.812 33.048C234.356 33.592 235.033 33.864 235.844 33.864ZM249.121 33.992C248.31 34.8027 247.313 35.208 246.129 35.208C244.945 35.208 243.948 34.8027 243.137 33.992C242.326 33.1813 241.921 32.184 241.921 31C241.921 29.816 242.326 28.8187 243.137 28.008C243.948 27.1973 244.945 26.792 246.129 26.792C247.313 26.792 248.31 27.1973 249.121 28.008C249.942 28.8293 250.353 29.8267 250.353 31C250.353 32.1733 249.942 33.1707 249.121 33.992ZM246.129 33.848C246.929 33.848 247.601 33.576 248.145 33.032C248.689 32.488 248.961 31.8107 248.961 31C248.961 30.1893 248.689 29.512 248.145 28.968C247.601 28.424 246.929 28.152 246.129 28.152C245.34 28.152 244.673 28.424 244.129 28.968C243.585 29.512 243.313 30.1893 243.313 31C243.313 31.8107 243.585 32.488 244.129 33.032C244.673 33.576 245.34 33.848 246.129 33.848ZM257.962 30.888C258.783 31.2293 259.194 31.848 259.194 32.744C259.194 33.4267 258.97 33.976 258.522 34.392C258.074 34.7973 257.445 35 256.634 35H252.634V27H256.314C257.103 27 257.717 27.1973 258.154 27.592C258.602 27.9867 258.826 28.5147 258.826 29.176C258.826 29.944 258.538 30.5147 257.962 30.888ZM256.25 28.248H253.994V30.344H256.25C257.061 30.344 257.466 29.9867 257.466 29.272C257.466 28.5893 257.061 28.248 256.25 28.248ZM253.994 33.736H256.554C256.959 33.736 257.269 33.64 257.482 33.448C257.706 33.256 257.818 32.984 257.818 32.632C257.818 32.3013 257.706 32.0453 257.482 31.864C257.269 31.672 256.959 31.576 256.554 31.576H253.994V33.736Z" fill="#44444E"/>
</g>
<defs>
<filter id="filter0_i_123_105" x="0" y="0" width="284" height="61" filterUnits="userSpaceOnUse" color-interpolation-filters="sRGB">
<feFlood flood-opacity="0" result="BackgroundImageFix"/>
<feBlend mode="normal" in="SourceGraphic" in2="BackgroundImageFix" result="shape"/>
<feColorMatrix in="SourceAlpha" type="matrix" values="0 0 0 0 0 0 0 0 0 0 0 0 0 0 0 0 0 0 127 0" result="hardAlpha"/>
<feOffset/>
<feGaussianBlur stdDeviation="6"/>
<feComposite in2="hardAlpha" operator="arithmetic" k2="-1" k3="1"/>
<feColorMatrix type="matrix" values="0 0 0 0 1 0 0 0 0 1 0 0 0 0 1 0 0 0 0.5 0"/>
<feBlend mode="normal" in2="shape" result="effect1_innerShadow_123_105"/>
</filter>
<radialGradient id="paint0_radial_123_105" cx="0" cy="0" r="1" gradientUnits="userSpaceOnUse" gradientTransform="translate(142 5.13496e-06) rotate(90) scale(83.3667 301.138)">
<stop stop-color="#FFC400"/>
<stop offset="1" stop-color="#FF9900"/>
</radialGradient>
</defs>
</svg>
