<svg width="461" height="95" viewBox="0 0 461 95" fill="none" xmlns="http://www.w3.org/2000/svg">
<g filter="url(#filter0_i_120_1158)">
<rect width="461" height="95" rx="47.5" fill="url(#paint0_radial_120_1158)"/>
<path d="M47.5363 39.4H52.1083C53.2603 39.4 54.2263 39.79 55.0063 40.57C55.7863 41.35 56.1763 42.31 56.1763 43.45C56.1763 44.59 55.7863 45.55 55.0063 46.33C54.2263 47.11 53.2603 47.5 52.1083 47.5H49.2103V52H47.5363V39.4ZM49.2103 45.934H52.1083C52.8163 45.934 53.3923 45.7 53.8363 45.232C54.2923 44.74 54.5203 44.146 54.5203 43.45C54.5203 42.73 54.2923 42.136 53.8363 41.668C53.3803 41.2 52.8043 40.966 52.1083 40.966H49.2103V45.934ZM67.6703 52H65.8883L64.8623 49.174H59.1923L58.1663 52H56.3843L61.0823 39.4H62.9723L67.6703 52ZM62.0183 41.398L59.7683 47.608H64.2863L62.0183 41.398ZM75.3417 52.234C73.4217 52.234 71.8437 51.604 70.6077 50.344C69.3717 49.096 68.7537 47.548 68.7537 45.7C68.7537 43.852 69.3717 42.304 70.6077 41.056C71.8437 39.796 73.4217 39.166 75.3417 39.166C76.4817 39.166 77.5377 39.442 78.5097 39.994C79.4817 40.546 80.2377 41.29 80.7777 42.226L79.3197 43.072C78.9597 42.376 78.4197 41.824 77.6997 41.416C76.9917 40.996 76.2057 40.786 75.3417 40.786C73.8777 40.786 72.6897 41.254 71.7777 42.19C70.8657 43.114 70.4097 44.284 70.4097 45.7C70.4097 47.104 70.8657 48.268 71.7777 49.192C72.6897 50.128 73.8777 50.596 75.3417 50.596C76.2057 50.596 76.9917 50.392 77.6997 49.984C78.4197 49.564 78.9597 49.012 79.3197 48.328L80.7777 49.156C80.2497 50.092 79.4997 50.842 78.5277 51.406C77.5677 51.958 76.5057 52.234 75.3417 52.234ZM89.2804 52.234C87.3604 52.234 85.7824 51.604 84.5464 50.344C83.3104 49.096 82.6924 47.548 82.6924 45.7C82.6924 43.852 83.3104 42.304 84.5464 41.056C85.7824 39.796 87.3604 39.166 89.2804 39.166C90.4204 39.166 91.4764 39.442 92.4484 39.994C93.4204 40.546 94.1764 41.29 94.7164 42.226L93.2584 43.072C92.8984 42.376 92.3584 41.824 91.6384 41.416C90.9304 40.996 90.1444 40.786 89.2804 40.786C87.8164 40.786 86.6284 41.254 85.7164 42.19C84.8044 43.114 84.3484 44.284 84.3484 45.7C84.3484 47.104 84.8044 48.268 85.7164 49.192C86.6284 50.128 87.8164 50.596 89.2804 50.596C90.1444 50.596 90.9304 50.392 91.6384 49.984C92.3584 49.564 92.8984 49.012 93.2584 48.328L94.7164 49.156C94.1884 50.092 93.4384 50.842 92.4664 51.406C91.5064 51.958 90.4444 52.234 89.2804 52.234ZM104.315 45.34V39.4H105.989V52H104.315V46.924C103.331 47.392 102.299 47.626 101.219 47.626C99.9951 47.626 99.0051 47.284 98.2491 46.6C97.4931 45.904 97.1151 45.004 97.1151 43.9V39.4H98.7891V43.792C98.7891 44.476 99.0051 45.022 99.4371 45.43C99.8811 45.838 100.481 46.042 101.237 46.042C102.317 46.042 103.343 45.808 104.315 45.34ZM118.912 52H117.238V42.604L110.758 52H109.408V39.4H111.082V48.814L117.562 39.4H118.912V52ZM121.301 39.4H130.391V40.984H126.665V52H125.009V40.984H121.301V39.4ZM141.934 52H140.152L139.126 49.174H133.456L132.43 52H130.648L135.346 39.4H137.236L141.934 52ZM136.282 41.398L134.032 47.608H138.55L136.282 41.398ZM142.2 39.4H151.29V40.984H147.564V52H145.908V40.984H142.2V39.4ZM155.341 43.9H158.239C159.391 43.9 160.357 44.29 161.137 45.07C161.917 45.85 162.307 46.81 162.307 47.95C162.307 49.102 161.917 50.068 161.137 50.848C160.369 51.616 159.403 52 158.239 52H153.667V39.4H155.341V43.9ZM155.341 50.434H158.239C158.935 50.434 159.511 50.2 159.967 49.732C160.423 49.264 160.651 48.67 160.651 47.95C160.651 47.254 160.423 46.666 159.967 46.186C159.523 45.706 158.947 45.466 158.239 45.466H155.341V50.434ZM176.146 52.234C174.226 52.234 172.648 51.604 171.412 50.344C170.176 49.096 169.558 47.548 169.558 45.7C169.558 43.852 170.176 42.304 171.412 41.056C172.648 39.796 174.226 39.166 176.146 39.166C177.286 39.166 178.342 39.442 179.314 39.994C180.286 40.546 181.042 41.29 181.582 42.226L180.124 43.072C179.764 42.376 179.224 41.824 178.504 41.416C177.796 40.996 177.01 40.786 176.146 40.786C174.682 40.786 173.494 41.254 172.582 42.19C171.67 43.114 171.214 44.284 171.214 45.7C171.214 47.104 171.67 48.268 172.582 49.192C173.494 50.128 174.682 50.596 176.146 50.596C177.01 50.596 177.796 50.392 178.504 49.984C179.224 49.564 179.764 49.012 180.124 48.328L181.582 49.156C181.054 50.092 180.304 50.842 179.332 51.406C178.372 51.958 177.31 52.234 176.146 52.234ZM183.031 39.4H192.121V40.984H188.395V52H186.739V40.984H183.031V39.4ZM193.111 45.7C193.111 43.876 193.741 42.334 195.001 41.074C196.261 39.802 197.803 39.166 199.627 39.166C201.451 39.166 202.993 39.802 204.253 41.074C205.525 42.334 206.161 43.876 206.161 45.7C206.161 47.512 205.525 49.054 204.253 50.326C202.993 51.598 201.451 52.234 199.627 52.234C197.803 52.234 196.261 51.598 195.001 50.326C193.741 49.042 193.111 47.5 193.111 45.7ZM204.487 45.7C204.487 44.308 204.019 43.144 203.083 42.208C202.171 41.26 201.019 40.786 199.627 40.786C198.247 40.786 197.089 41.26 196.153 42.208C195.229 43.156 194.767 44.32 194.767 45.7C194.767 47.068 195.229 48.232 196.153 49.192C197.089 50.128 198.247 50.596 199.627 50.596C201.019 50.596 202.171 50.128 203.083 49.192C204.019 48.232 204.487 47.068 204.487 45.7ZM218.398 52H216.724V42.604L210.244 52H208.894V39.4H210.568V48.814L217.048 39.4H218.398V52ZM231.713 39.4H233.603V52H231.947V42.154L227.825 49.012H227.609L223.487 42.172V52H221.813V39.4H223.703L227.717 46.06L231.713 39.4ZM236.351 45.7C236.351 43.876 236.981 42.334 238.241 41.074C239.501 39.802 241.043 39.166 242.867 39.166C244.691 39.166 246.233 39.802 247.493 41.074C248.765 42.334 249.401 43.876 249.401 45.7C249.401 47.512 248.765 49.054 247.493 50.326C246.233 51.598 244.691 52.234 242.867 52.234C241.043 52.234 239.501 51.598 238.241 50.326C236.981 49.042 236.351 47.5 236.351 45.7ZM247.727 45.7C247.727 44.308 247.259 43.144 246.323 42.208C245.411 41.26 244.259 40.786 242.867 40.786C241.487 40.786 240.329 41.26 239.393 42.208C238.469 43.156 238.007 44.32 238.007 45.7C238.007 47.068 238.469 48.232 239.393 49.192C240.329 50.128 241.487 50.596 242.867 50.596C244.259 50.596 245.411 50.128 246.323 49.192C247.259 48.232 247.727 47.068 247.727 45.7ZM258.056 52.234C256.136 52.234 254.558 51.604 253.322 50.344C252.086 49.096 251.468 47.548 251.468 45.7C251.468 43.852 252.086 42.304 253.322 41.056C254.558 39.796 256.136 39.166 258.056 39.166C259.196 39.166 260.252 39.442 261.224 39.994C262.196 40.546 262.952 41.29 263.492 42.226L262.034 43.072C261.674 42.376 261.134 41.824 260.414 41.416C259.706 40.996 258.92 40.786 258.056 40.786C256.592 40.786 255.404 41.254 254.492 42.19C253.58 43.114 253.124 44.284 253.124 45.7C253.124 47.104 253.58 48.268 254.492 49.192C255.404 50.128 256.592 50.596 258.056 50.596C258.92 50.596 259.706 50.392 260.414 49.984C261.134 49.564 261.674 49.012 262.034 48.328L263.492 49.156C262.964 50.092 262.214 50.842 261.242 51.406C260.282 51.958 259.22 52.234 258.056 52.234ZM264.941 39.4H274.031V40.984H270.305V52H268.649V40.984H264.941V39.4ZM278.082 43.9H280.98C282.132 43.9 283.098 44.29 283.878 45.07C284.658 45.85 285.048 46.81 285.048 47.95C285.048 49.102 284.658 50.068 283.878 50.848C283.11 51.616 282.144 52 280.98 52H276.408V39.4H278.082V43.9ZM278.082 50.434H280.98C281.676 50.434 282.252 50.2 282.708 49.732C283.164 49.264 283.392 48.67 283.392 47.95C283.392 47.254 283.164 46.666 282.708 46.186C282.264 45.706 281.688 45.466 280.98 45.466H278.082V50.434ZM302.865 39.4H304.755V52H303.099V42.154L298.977 49.012H298.761L294.639 42.172V52H292.965V39.4H294.855L298.869 46.06L302.865 39.4ZM318.249 52H316.467L315.441 49.174H309.771L308.745 52H306.963L311.661 39.4H313.551L318.249 52ZM312.597 41.398L310.347 47.608H314.865L312.597 41.398ZM318.516 39.4H327.606V40.984H323.88V52H322.224V40.984H318.516V39.4ZM331.656 46.42V50.416H337.506V52H329.982V39.4H337.416V40.984H331.656V44.854H336.966V46.42H331.656ZM340.247 39.4H344.819C345.971 39.4 346.937 39.79 347.717 40.57C348.497 41.35 348.887 42.31 348.887 43.45C348.887 44.59 348.497 45.55 347.717 46.33C346.937 47.11 345.971 47.5 344.819 47.5H341.921V52H340.247V39.4ZM341.921 45.934H344.819C345.527 45.934 346.103 45.7 346.547 45.232C347.003 44.74 347.231 44.146 347.231 43.45C347.231 42.73 347.003 42.136 346.547 41.668C346.091 41.2 345.515 40.966 344.819 40.966H341.921V45.934ZM361.088 52H359.414V42.604L352.934 52H351.584V39.4H353.258V48.814L359.738 39.4H361.088V52ZM374.584 52H372.802L371.776 49.174H366.106L365.08 52H363.298L367.996 39.4H369.886L374.584 52ZM368.932 41.398L366.682 47.608H371.2L368.932 41.398ZM375.745 52V50.488C376.597 50.608 377.221 50.368 377.617 49.768C378.025 49.168 378.229 48.094 378.229 46.546V39.4H386.545V52H384.871V40.984H379.903V46.546C379.903 47.662 379.795 48.604 379.579 49.372C379.375 50.14 379.075 50.716 378.679 51.1C378.295 51.484 377.863 51.748 377.383 51.892C376.915 52.024 376.369 52.06 375.745 52ZM389.307 45.7C389.307 43.876 389.937 42.334 391.197 41.074C392.457 39.802 393.999 39.166 395.823 39.166C397.647 39.166 399.189 39.802 400.449 41.074C401.721 42.334 402.357 43.876 402.357 45.7C402.357 47.512 401.721 49.054 400.449 50.326C399.189 51.598 397.647 52.234 395.823 52.234C393.999 52.234 392.457 51.598 391.197 50.326C389.937 49.042 389.307 47.5 389.307 45.7ZM400.683 45.7C400.683 44.308 400.215 43.144 399.279 42.208C398.367 41.26 397.215 40.786 395.823 40.786C394.443 40.786 393.285 41.26 392.349 42.208C391.425 43.156 390.963 44.32 390.963 45.7C390.963 47.068 391.425 48.232 392.349 49.192C393.285 50.128 394.443 50.596 395.823 50.596C397.215 50.596 398.367 50.128 399.279 49.192C400.215 48.232 400.683 47.068 400.683 45.7ZM412.289 45.466C412.877 45.754 413.339 46.156 413.675 46.672C414.011 47.188 414.179 47.776 414.179 48.436C414.179 49.444 413.825 50.29 413.117 50.974C412.409 51.658 411.545 52 410.525 52H405.089V39.4H410.129C411.125 39.4 411.959 39.73 412.631 40.39C413.315 41.05 413.657 41.866 413.657 42.838C413.657 43.966 413.201 44.842 412.289 45.466ZM410.129 40.966H406.763V44.818H410.129C410.657 44.818 411.101 44.632 411.461 44.26C411.821 43.888 412.001 43.432 412.001 42.892C412.001 42.364 411.815 41.914 411.443 41.542C411.083 41.158 410.645 40.966 410.129 40.966ZM406.763 50.434H410.525C411.089 50.434 411.563 50.236 411.947 49.84C412.331 49.444 412.523 48.958 412.523 48.382C412.523 47.818 412.325 47.338 411.929 46.942C411.557 46.546 411.089 46.348 410.525 46.348H406.763V50.434Z" fill="#44444E"/>
</g>
<defs>
<filter id="filter0_i_120_1158" x="0" y="0" width="461" height="95" filterUnits="userSpaceOnUse" color-interpolation-filters="sRGB">
<feFlood flood-opacity="0" result="BackgroundImageFix"/>
<feBlend mode="normal" in="SourceGraphic" in2="BackgroundImageFix" result="shape"/>
<feColorMatrix in="SourceAlpha" type="matrix" values="0 0 0 0 0 0 0 0 0 0 0 0 0 0 0 0 0 0 127 0" result="hardAlpha"/>
<feOffset/>
<feGaussianBlur stdDeviation="6"/>
<feComposite in2="hardAlpha" operator="arithmetic" k2="-1" k3="1"/>
<feColorMatrix type="matrix" values="0 0 0 0 1 0 0 0 0 1 0 0 0 0 1 0 0 0 0.5 0"/>
<feBlend mode="normal" in2="shape" result="effect1_innerShadow_120_1158"/>
</filter>
<radialGradient id="paint0_radial_120_1158" cx="0" cy="0" r="1" gradientUnits="userSpaceOnUse" gradientTransform="translate(230.5 7.99706e-06) rotate(90) scale(129.833 488.819)">
<stop stop-color="#FFC400"/>
<stop offset="1" stop-color="#FF9900"/>
</radialGradient>
</defs>
</svg>
